<svg width="161" height="50" viewBox="0 0 161 50" fill="none" xmlns="http://www.w3.org/2000/svg">
<rect x="15.8821" y="8.5" width="3.6" height="3.6" fill="#9EFE54"/>
<rect x="19.4822" y="12.1" width="3.6" height="3.6" fill="#9EFE54"/>
<rect x="12.2822" y="12.1" width="3.6" height="3.6" fill="#9EFE54"/>
<rect x="8.68213" y="15.7" width="3.6" height="3.6" fill="#9EFE54"/>
<rect x="12.2822" y="19.3" width="3.6" height="3.6" fill="#9EFE54"/>
<rect x="15.8821" y="22.9" width="3.6" height="3.6" fill="#9EFE54"/>
<rect x="19.4822" y="19.3" width="3.6" height="3.6" fill="#9EFE54"/>
<rect x="23.082" y="15.7" width="3.6" height="3.6" fill="#9EFE54"/>
<path d="M2.68213 7.91538C3.69309 20.1164 6.62065 26.2484 17.4395 35.5C28.5079 25.8714 31.4355 19.7916 31.6821 7.91538C25.6564 6.66956 22.8218 5.37897 18.2975 2.5H16.0667C11.1111 5.99554 8.14871 7.02178 2.68213 7.91538Z" stroke="#E2E0E0" stroke-width="5"/>
<path d="M31.9461 31.5L38.1141 13.62H42.3381L48.5061 31.5H44.9541L43.6821 27.66H36.7701L35.4741 31.5H31.9461ZM37.7061 24.78H42.7461L39.7701 15.876H40.6821L37.7061 24.78ZM55.2001 31.788C53.8081 31.788 52.5921 31.46 51.5521 30.804C50.5281 30.132 49.8241 29.228 49.4401 28.092L51.7921 26.964C52.1281 27.7 52.5921 28.276 53.1841 28.692C53.7921 29.108 54.4641 29.316 55.2001 29.316C55.7761 29.316 56.2321 29.188 56.5681 28.932C56.9041 28.676 57.0721 28.34 57.0721 27.924C57.0721 27.668 57.0001 27.46 56.8561 27.3C56.7281 27.124 56.5441 26.98 56.3041 26.868C56.0801 26.74 55.8321 26.636 55.5601 26.556L53.4241 25.956C52.3201 25.636 51.4801 25.148 50.9041 24.492C50.3441 23.836 50.0641 23.06 50.0641 22.164C50.0641 21.364 50.2641 20.668 50.6641 20.076C51.0801 19.468 51.6481 18.996 52.3681 18.66C53.1041 18.324 53.9441 18.156 54.8881 18.156C56.1201 18.156 57.2081 18.452 58.1521 19.044C59.0961 19.636 59.7681 20.468 60.1681 21.54L57.7681 22.668C57.5441 22.076 57.1681 21.604 56.6401 21.252C56.1121 20.9 55.5201 20.724 54.8641 20.724C54.3361 20.724 53.9201 20.844 53.6161 21.084C53.3121 21.324 53.1601 21.636 53.1601 22.02C53.1601 22.26 53.2241 22.468 53.3521 22.644C53.4801 22.82 53.6561 22.964 53.8801 23.076C54.1201 23.188 54.3921 23.292 54.6961 23.388L56.7841 24.012C57.8561 24.332 58.6801 24.812 59.2561 25.452C59.8481 26.092 60.1441 26.876 60.1441 27.804C60.1441 28.588 59.9361 29.284 59.5201 29.892C59.1041 30.484 58.5281 30.948 57.7921 31.284C57.0561 31.62 56.1921 31.788 55.2001 31.788ZM62.5602 31.5V18.444H65.7042V31.5H62.5602ZM62.5602 16.98V13.62H65.7042V16.98H62.5602ZM73.5751 31.788C72.1831 31.788 70.9671 31.46 69.9271 30.804C68.9031 30.132 68.1991 29.228 67.8151 28.092L70.1671 26.964C70.5031 27.7 70.9671 28.276 71.5591 28.692C72.1671 29.108 72.8391 29.316 73.5751 29.316C74.1511 29.316 74.6071 29.188 74.9431 28.932C75.2791 28.676 75.4471 28.34 75.4471 27.924C75.4471 27.668 75.3751 27.46 75.2311 27.3C75.1031 27.124 74.9191 26.98 74.6791 26.868C74.4551 26.74 74.2071 26.636 73.9351 26.556L71.7991 25.956C70.6951 25.636 69.8551 25.148 69.2791 24.492C68.7191 23.836 68.4391 23.06 68.4391 22.164C68.4391 21.364 68.6391 20.668 69.0391 20.076C69.4551 19.468 70.0231 18.996 70.7431 18.66C71.4791 18.324 72.3191 18.156 73.2631 18.156C74.4951 18.156 75.5831 18.452 76.5271 19.044C77.4711 19.636 78.1431 20.468 78.5431 21.54L76.1431 22.668C75.9191 22.076 75.5431 21.604 75.0151 21.252C74.4871 20.9 73.8951 20.724 73.2391 20.724C72.7111 20.724 72.2951 20.844 71.9911 21.084C71.6871 21.324 71.5351 21.636 71.5351 22.02C71.5351 22.26 71.5991 22.468 71.7271 22.644C71.8551 22.82 72.0311 22.964 72.2551 23.076C72.4951 23.188 72.7671 23.292 73.0711 23.388L75.1591 24.012C76.2311 24.332 77.0551 24.812 77.6311 25.452C78.2231 26.092 78.5191 26.876 78.5191 27.804C78.5191 28.588 78.3111 29.284 77.8951 29.892C77.4791 30.484 76.9031 30.948 76.1671 31.284C75.4311 31.62 74.5671 31.788 73.5751 31.788ZM86.8872 31.644C85.4152 31.644 84.2712 31.244 83.4552 30.444C82.6552 29.628 82.2552 28.484 82.2552 27.012V21.252H79.9992V18.444H80.2392C80.8792 18.444 81.3752 18.276 81.7272 17.94C82.0792 17.604 82.2552 17.116 82.2552 16.476V15.468H85.3992V18.444H88.3992V21.252H85.3992V26.844C85.3992 27.276 85.4712 27.644 85.6152 27.948C85.7752 28.252 86.0152 28.484 86.3352 28.644C86.6712 28.804 87.0952 28.884 87.6072 28.884C87.7192 28.884 87.8472 28.876 87.9912 28.86C88.1512 28.844 88.3032 28.828 88.4472 28.812V31.5C88.2232 31.532 87.9672 31.564 87.6792 31.596C87.3912 31.628 87.1272 31.644 86.8872 31.644ZM96.9241 31.788C95.5801 31.788 94.4041 31.484 93.3961 30.876C92.3881 30.268 91.6041 29.444 91.0441 28.404C90.4841 27.364 90.2041 26.212 90.2041 24.948C90.2041 23.636 90.4841 22.476 91.0441 21.468C91.6201 20.444 92.3961 19.636 93.3721 19.044C94.3641 18.452 95.4681 18.156 96.6841 18.156C97.7081 18.156 98.6041 18.324 99.3721 18.66C100.156 18.996 100.82 19.46 101.364 20.052C101.908 20.644 102.324 21.324 102.612 22.092C102.9 22.844 103.044 23.66 103.044 24.54C103.044 24.764 103.028 24.996 102.996 25.236C102.98 25.476 102.94 25.684 102.876 25.86H92.7961V23.46H101.1L99.6121 24.588C99.7561 23.852 99.7161 23.196 99.4921 22.62C99.2841 22.044 98.9321 21.588 98.4361 21.252C97.9561 20.916 97.3721 20.748 96.6841 20.748C96.0281 20.748 95.4441 20.916 94.9321 21.252C94.4201 21.572 94.0281 22.052 93.7561 22.692C93.5001 23.316 93.4041 24.076 93.4681 24.972C93.4041 25.772 93.5081 26.484 93.7801 27.108C94.0681 27.716 94.4841 28.188 95.0281 28.524C95.5881 28.86 96.2281 29.028 96.9481 29.028C97.6681 29.028 98.2761 28.876 98.7721 28.572C99.2841 28.268 99.6841 27.86 99.9721 27.348L102.516 28.596C102.26 29.22 101.86 29.772 101.316 30.252C100.772 30.732 100.124 31.108 99.3721 31.38C98.6361 31.652 97.8201 31.788 96.9241 31.788ZM105.427 31.5V18.444H108.379V21.012L108.139 20.556C108.443 19.772 108.939 19.18 109.627 18.78C110.331 18.364 111.147 18.156 112.075 18.156C113.035 18.156 113.883 18.364 114.619 18.78C115.371 19.196 115.955 19.78 116.371 20.532C116.787 21.268 116.995 22.124 116.995 23.1V31.5H113.851V23.844C113.851 23.268 113.739 22.772 113.515 22.356C113.291 21.94 112.979 21.62 112.579 21.396C112.195 21.156 111.739 21.036 111.211 21.036C110.699 21.036 110.243 21.156 109.843 21.396C109.443 21.62 109.131 21.94 108.907 22.356C108.683 22.772 108.571 23.268 108.571 23.844V31.5H105.427ZM120.302 26.364V23.604H130.502V26.364H120.302ZM134.021 31.5V16.6H136.741V24.36L136.001 24.1L142.341 16.6H145.761L139.821 23.64L139.981 21.72L145.941 31.5H142.741L138.741 24.94L136.741 27.32V31.5H134.021ZM152.015 31.74C151.201 31.74 150.428 31.5933 149.695 31.3C148.975 30.9933 148.355 30.5667 147.835 30.02C147.328 29.46 146.981 28.8 146.795 28.04L149.175 27.2C149.415 27.88 149.781 28.4 150.275 28.76C150.768 29.1067 151.348 29.28 152.015 29.28C152.548 29.28 153.008 29.18 153.395 28.98C153.795 28.78 154.108 28.4933 154.335 28.12C154.561 27.7333 154.675 27.28 154.675 26.76C154.675 26.24 154.561 25.8 154.335 25.44C154.121 25.0667 153.815 24.78 153.415 24.58C153.015 24.38 152.541 24.28 151.995 24.28C151.741 24.28 151.475 24.3067 151.195 24.36C150.928 24.4133 150.688 24.4933 150.475 24.6L149.855 23.3L153.715 18.9H147.635V16.6H156.775V18.74L152.895 23.28L152.935 22.26C153.828 22.2733 154.608 22.4667 155.275 22.84C155.941 23.2133 156.461 23.7267 156.835 24.38C157.208 25.0333 157.395 25.8 157.395 26.68C157.395 27.64 157.161 28.5067 156.695 29.28C156.228 30.04 155.588 30.64 154.775 31.08C153.961 31.52 153.041 31.74 152.015 31.74Z" fill="#E2E0E0"/>
<path d="M16.7701 47.5L18.9461 41.54H19.6341L21.8101 47.5H21.1381L20.6261 46.044H17.9621L17.4421 47.5H16.7701ZM18.1701 45.444H20.4021L19.1941 42.02H19.3861L18.1701 45.444ZM24.0049 47.596C23.5942 47.596 23.2342 47.492 22.9249 47.284C22.6155 47.076 22.3915 46.7933 22.2529 46.436L22.7569 46.196C22.8795 46.4573 23.0502 46.6653 23.2689 46.82C23.4929 46.9747 23.7382 47.052 24.0049 47.052C24.2609 47.052 24.4769 46.9907 24.6529 46.868C24.8289 46.74 24.9169 46.5747 24.9169 46.372C24.9169 46.2227 24.8742 46.1053 24.7889 46.02C24.7035 45.9293 24.6049 45.86 24.4929 45.812C24.3809 45.764 24.2822 45.7293 24.1969 45.708L23.5809 45.532C23.1862 45.42 22.9009 45.2627 22.7249 45.06C22.5489 44.8573 22.4609 44.6227 22.4609 44.356C22.4609 44.1053 22.5249 43.8867 22.6529 43.7C22.7809 43.5133 22.9542 43.3693 23.1729 43.268C23.3915 43.1667 23.6342 43.116 23.9009 43.116C24.2635 43.116 24.5915 43.212 24.8849 43.404C25.1835 43.5907 25.3942 43.852 25.5169 44.188L25.0049 44.428C24.8982 44.188 24.7435 44.0013 24.5409 43.868C24.3435 43.7293 24.1222 43.66 23.8769 43.66C23.6369 43.66 23.4449 43.7213 23.3009 43.844C23.1569 43.9667 23.0849 44.1213 23.0849 44.308C23.0849 44.452 23.1222 44.5667 23.1969 44.652C23.2715 44.7373 23.3569 44.8013 23.4529 44.844C23.5542 44.8867 23.6422 44.9187 23.7169 44.94L24.4289 45.148C24.7755 45.2493 25.0449 45.4067 25.2369 45.62C25.4342 45.8333 25.5329 46.084 25.5329 46.372C25.5329 46.6067 25.4662 46.8173 25.3329 47.004C25.2049 47.1907 25.0262 47.3373 24.7969 47.444C24.5675 47.5453 24.3035 47.596 24.0049 47.596ZM26.5872 47.5V41.444H27.1872V45.684L26.9312 45.644L29.3392 43.212H30.1152L28.4352 44.932L30.2672 47.5H29.5472L27.8272 45.124L28.2112 45.156L26.9872 46.42L27.1872 45.924V47.5H26.5872ZM34.4254 47.596C34.0467 47.596 33.7027 47.524 33.3934 47.38C33.084 47.236 32.8227 47.044 32.6094 46.804C32.396 46.5587 32.244 46.2893 32.1534 45.996L32.7294 45.78C32.868 46.1853 33.084 46.4947 33.3774 46.708C33.6707 46.916 34.02 47.02 34.4254 47.02C34.6814 47.02 34.9054 46.98 35.0974 46.9C35.2947 46.8147 35.4467 46.6973 35.5534 46.548C35.66 46.3987 35.7134 46.2253 35.7134 46.028C35.7134 45.7347 35.6334 45.508 35.4734 45.348C35.3134 45.188 35.084 45.0653 34.7854 44.98L33.7134 44.66C33.292 44.5373 32.9667 44.332 32.7374 44.044C32.5134 43.756 32.4014 43.428 32.4014 43.06C32.4014 42.7453 32.4787 42.468 32.6334 42.228C32.788 41.9827 32.9987 41.7907 33.2654 41.652C33.5374 41.5133 33.844 41.444 34.1854 41.444C34.5427 41.444 34.8627 41.5107 35.1454 41.644C35.4334 41.772 35.676 41.9427 35.8734 42.156C36.0707 42.3693 36.212 42.6067 36.2974 42.868L35.7374 43.092C35.6094 42.74 35.4094 42.4733 35.1374 42.292C34.8707 42.1107 34.556 42.02 34.1934 42.02C33.964 42.02 33.7614 42.06 33.5854 42.14C33.4147 42.22 33.2814 42.3347 33.1854 42.484C33.0894 42.6333 33.0414 42.8093 33.0414 43.012C33.0414 43.2573 33.1187 43.4787 33.2734 43.676C33.428 43.868 33.6654 44.012 33.9854 44.108L34.9294 44.388C35.3987 44.5267 35.7534 44.7267 35.9934 44.988C36.2334 45.2493 36.3534 45.5773 36.3534 45.972C36.3534 46.292 36.2707 46.5747 36.1054 46.82C35.9454 47.06 35.7187 47.2493 35.4254 47.388C35.1374 47.5267 34.804 47.596 34.4254 47.596ZM38.585 47.596C38.313 47.596 38.0703 47.5453 37.857 47.444C37.6437 47.3373 37.4757 47.1933 37.353 47.012C37.2303 46.8307 37.169 46.6227 37.169 46.388C37.169 46.164 37.217 45.9613 37.313 45.78C37.409 45.5933 37.5583 45.436 37.761 45.308C37.9637 45.18 38.2223 45.0893 38.537 45.036L40.217 44.756V45.3L38.681 45.556C38.3717 45.6093 38.1477 45.708 38.009 45.852C37.8757 45.996 37.809 46.1667 37.809 46.364C37.809 46.556 37.8837 46.7187 38.033 46.852C38.1877 46.9853 38.385 47.052 38.625 47.052C38.9183 47.052 39.1743 46.9907 39.393 46.868C39.6117 46.74 39.7823 46.5693 39.905 46.356C40.0277 46.1427 40.089 45.9053 40.089 45.644V44.556C40.089 44.3 39.9957 44.092 39.809 43.932C39.6223 43.772 39.3797 43.692 39.081 43.692C38.8197 43.692 38.5903 43.7587 38.393 43.892C38.1957 44.02 38.049 44.188 37.953 44.396L37.409 44.1C37.489 43.9187 37.6143 43.7533 37.785 43.604C37.961 43.4547 38.161 43.3373 38.385 43.252C38.609 43.1613 38.841 43.116 39.081 43.116C39.3957 43.116 39.673 43.1773 39.913 43.3C40.1583 43.4227 40.3477 43.5933 40.481 43.812C40.6197 44.0253 40.689 44.2733 40.689 44.556V47.5H40.089V46.644L40.177 46.732C40.1023 46.892 39.985 47.0387 39.825 47.172C39.6703 47.3 39.4863 47.404 39.273 47.484C39.065 47.5587 38.8357 47.596 38.585 47.596ZM42.3631 47.5V43.812H41.5071V43.212H42.3631V42.828C42.3631 42.5293 42.4298 42.2787 42.5631 42.076C42.6965 41.868 42.8725 41.7107 43.0911 41.604C43.3098 41.4973 43.5445 41.444 43.7951 41.444C43.8485 41.444 43.9098 41.4493 43.9791 41.46C44.0485 41.4653 44.1045 41.4733 44.1471 41.484V42.028C44.1098 42.0173 44.0591 42.012 43.9951 42.012C43.9311 42.0067 43.8858 42.004 43.8591 42.004C43.6031 42.004 43.3898 42.0653 43.2191 42.188C43.0485 42.3107 42.9631 42.524 42.9631 42.828V43.212H44.0111V43.812H42.9631V47.5H42.3631ZM46.7736 47.596C46.3736 47.596 46.0109 47.5 45.6856 47.308C45.3656 47.1107 45.1122 46.8413 44.9256 46.5C44.7389 46.1587 44.6456 45.772 44.6456 45.34C44.6456 44.908 44.7362 44.5267 44.9176 44.196C45.0989 43.86 45.3442 43.596 45.6536 43.404C45.9682 43.212 46.3202 43.116 46.7096 43.116C47.0189 43.116 47.2936 43.1747 47.5336 43.292C47.7789 43.404 47.9869 43.5587 48.1576 43.756C48.3282 43.948 48.4589 44.1667 48.5496 44.412C48.6402 44.652 48.6856 44.9 48.6856 45.156C48.6856 45.2093 48.6829 45.2707 48.6776 45.34C48.6722 45.404 48.6642 45.4707 48.6536 45.54H45.0296V44.98H48.3096L48.0216 45.22C48.0696 44.9267 48.0349 44.6653 47.9176 44.436C47.8056 44.2013 47.6429 44.0173 47.4296 43.884C47.2162 43.7453 46.9762 43.676 46.7096 43.676C46.4429 43.676 46.1949 43.7453 45.9656 43.884C45.7416 44.0227 45.5656 44.2173 45.4376 44.468C45.3096 44.7133 45.2589 45.0067 45.2856 45.348C45.2589 45.6893 45.3122 45.988 45.4456 46.244C45.5842 46.4947 45.7709 46.6893 46.0056 46.828C46.2456 46.9667 46.5016 47.036 46.7736 47.036C47.0882 47.036 47.3522 46.9613 47.5656 46.812C47.7789 46.6627 47.9522 46.476 48.0856 46.252L48.5976 46.524C48.5122 46.716 48.3816 46.8947 48.2056 47.06C48.0296 47.22 47.8189 47.3507 47.5736 47.452C47.3336 47.548 47.0669 47.596 46.7736 47.596ZM51.3834 47.548C50.9994 47.548 50.7034 47.436 50.4954 47.212C50.2874 46.988 50.1834 46.668 50.1834 46.252V43.812H49.3914V43.212H49.5914C49.7728 43.212 49.9168 43.1533 50.0234 43.036C50.1301 42.9133 50.1834 42.7613 50.1834 42.58V42.22H50.7834V43.212H51.7274V43.812H50.7834V46.252C50.7834 46.396 50.8048 46.524 50.8474 46.636C50.8901 46.7427 50.9621 46.828 51.0634 46.892C51.1701 46.956 51.3114 46.988 51.4874 46.988C51.5301 46.988 51.5808 46.9853 51.6394 46.98C51.6981 46.9747 51.7488 46.9693 51.7914 46.964V47.5C51.7274 47.516 51.6554 47.5267 51.5754 47.532C51.4954 47.5427 51.4314 47.548 51.3834 47.548ZM52.933 49.26C52.8477 49.26 52.7597 49.252 52.669 49.236C52.5837 49.2253 52.4983 49.204 52.413 49.172V48.612C52.4663 48.6173 52.533 48.6253 52.613 48.636C52.6983 48.652 52.7837 48.66 52.869 48.66C53.1303 48.66 53.3303 48.604 53.469 48.492C53.6077 48.3853 53.7437 48.1773 53.877 47.868L54.149 47.228L54.133 47.756L52.317 43.212H52.965L54.453 46.964H54.285L55.765 43.212H56.429L54.469 48.044C54.3837 48.252 54.2743 48.4493 54.141 48.636C54.013 48.8227 53.8503 48.972 53.653 49.084C53.4557 49.2013 53.2157 49.26 52.933 49.26ZM57.0218 47.5V46.62H57.6618V47.5H57.0218ZM60.5502 47.5V41.54H62.5982C62.9875 41.54 63.3289 41.6173 63.6222 41.772C63.9155 41.9213 64.1422 42.1347 64.3022 42.412C64.4675 42.684 64.5502 43.0013 64.5502 43.364C64.5502 43.7853 64.4382 44.1453 64.2142 44.444C63.9955 44.7427 63.6969 44.9533 63.3182 45.076L64.7102 47.5H63.9582L62.5022 44.932L62.9342 45.18H61.1902V47.5H60.5502ZM61.1902 44.58H62.6302C62.8862 44.58 63.1102 44.532 63.3022 44.436C63.4942 44.3347 63.6435 44.1933 63.7502 44.012C63.8569 43.8253 63.9102 43.6067 63.9102 43.356C63.9102 43.1053 63.8569 42.8893 63.7502 42.708C63.6435 42.5267 63.4942 42.388 63.3022 42.292C63.1102 42.1907 62.8862 42.14 62.6302 42.14H61.1902V44.58ZM67.297 47.596C66.897 47.596 66.5343 47.5 66.209 47.308C65.889 47.1107 65.6357 46.8413 65.449 46.5C65.2623 46.1587 65.169 45.772 65.169 45.34C65.169 44.908 65.2597 44.5267 65.441 44.196C65.6223 43.86 65.8677 43.596 66.177 43.404C66.4917 43.212 66.8437 43.116 67.233 43.116C67.5423 43.116 67.817 43.1747 68.057 43.292C68.3023 43.404 68.5103 43.5587 68.681 43.756C68.8517 43.948 68.9823 44.1667 69.073 44.412C69.1637 44.652 69.209 44.9 69.209 45.156C69.209 45.2093 69.2063 45.2707 69.201 45.34C69.1957 45.404 69.1877 45.4707 69.177 45.54H65.553V44.98H68.833L68.545 45.22C68.593 44.9267 68.5583 44.6653 68.441 44.436C68.329 44.2013 68.1663 44.0173 67.953 43.884C67.7397 43.7453 67.4997 43.676 67.233 43.676C66.9663 43.676 66.7183 43.7453 66.489 43.884C66.265 44.0227 66.089 44.2173 65.961 44.468C65.833 44.7133 65.7823 45.0067 65.809 45.348C65.7823 45.6893 65.8357 45.988 65.969 46.244C66.1077 46.4947 66.2943 46.6893 66.529 46.828C66.769 46.9667 67.025 47.036 67.297 47.036C67.6117 47.036 67.8757 46.9613 68.089 46.812C68.3023 46.6627 68.4757 46.476 68.609 46.252L69.121 46.524C69.0357 46.716 68.905 46.8947 68.729 47.06C68.553 47.22 68.3423 47.3507 68.097 47.452C67.857 47.548 67.5903 47.596 67.297 47.596ZM70.2669 49.1V43.212H70.8669V44.172L70.7709 44.004C70.9415 43.732 71.1682 43.516 71.4509 43.356C71.7389 43.196 72.0669 43.116 72.4349 43.116C72.8402 43.116 73.2002 43.2147 73.5149 43.412C73.8349 43.604 74.0855 43.868 74.2669 44.204C74.4535 44.54 74.5469 44.924 74.5469 45.356C74.5469 45.7827 74.4535 46.1667 74.2669 46.508C74.0855 46.844 73.8349 47.1107 73.5149 47.308C73.2002 47.5 72.8402 47.596 72.4349 47.596C72.0669 47.596 71.7335 47.5133 71.4349 47.348C71.1415 47.1773 70.9202 46.9373 70.7709 46.628L70.8669 46.54V49.1H70.2669ZM72.4029 46.996C72.6909 46.996 72.9469 46.924 73.1709 46.78C73.4002 46.636 73.5789 46.4413 73.7069 46.196C73.8402 45.9453 73.9069 45.6653 73.9069 45.356C73.9069 45.0413 73.8402 44.7613 73.7069 44.516C73.5789 44.2707 73.4002 44.076 73.1709 43.932C72.9469 43.788 72.6909 43.716 72.4029 43.716C72.1149 43.716 71.8535 43.788 71.6189 43.932C71.3895 44.076 71.2055 44.2733 71.0669 44.524C70.9335 44.7693 70.8669 45.0467 70.8669 45.356C70.8669 45.6653 70.9335 45.9453 71.0669 46.196C71.2055 46.4413 71.3895 46.636 71.6189 46.78C71.8535 46.924 72.1149 46.996 72.4029 46.996ZM77.6108 47.596C77.2055 47.596 76.8375 47.5 76.5068 47.308C76.1761 47.1107 75.9121 46.844 75.7148 46.508C75.5228 46.1667 75.4268 45.78 75.4268 45.348C75.4268 44.9213 75.5228 44.54 75.7148 44.204C75.9068 43.868 76.1655 43.604 76.4908 43.412C76.8215 43.2147 77.1948 43.116 77.6108 43.116C78.0268 43.116 78.3975 43.212 78.7228 43.404C79.0535 43.596 79.3122 43.86 79.4988 44.196C79.6908 44.532 79.7868 44.916 79.7868 45.348C79.7868 45.7853 79.6881 46.1747 79.4908 46.516C79.2935 46.852 79.0295 47.116 78.6988 47.308C78.3735 47.5 78.0108 47.596 77.6108 47.596ZM77.6108 46.996C77.8988 46.996 78.1575 46.924 78.3868 46.78C78.6215 46.636 78.8055 46.4387 78.9388 46.188C79.0775 45.9373 79.1468 45.6573 79.1468 45.348C79.1468 45.0387 79.0775 44.7613 78.9388 44.516C78.8055 44.2707 78.6215 44.076 78.3868 43.932C78.1575 43.788 77.8988 43.716 77.6108 43.716C77.3228 43.716 77.0615 43.788 76.8268 43.932C76.5975 44.076 76.4135 44.2707 76.2748 44.516C76.1361 44.7613 76.0668 45.0387 76.0668 45.348C76.0668 45.6573 76.1361 45.9373 76.2748 46.188C76.4135 46.4387 76.5975 46.636 76.8268 46.78C77.0615 46.924 77.3228 46.996 77.6108 46.996ZM80.845 47.5V43.212H81.445V43.916L81.365 43.812C81.4663 43.6093 81.6183 43.4493 81.821 43.332C82.029 43.2147 82.2797 43.156 82.573 43.156H82.845V43.756H82.469C82.1597 43.756 81.9117 43.852 81.725 44.044C81.5383 44.236 81.445 44.508 81.445 44.86V47.5H80.845ZM85.1881 47.548C84.8041 47.548 84.5081 47.436 84.3001 47.212C84.0921 46.988 83.9881 46.668 83.9881 46.252V43.812H83.1961V43.212H83.3961C83.5775 43.212 83.7215 43.1533 83.8281 43.036C83.9348 42.9133 83.9881 42.7613 83.9881 42.58V42.22H84.5881V43.212H85.5321V43.812H84.5881V46.252C84.5881 46.396 84.6095 46.524 84.6521 46.636C84.6948 46.7427 84.7668 46.828 84.8681 46.892C84.9748 46.956 85.1161 46.988 85.2921 46.988C85.3348 46.988 85.3855 46.9853 85.4441 46.98C85.5028 46.9747 85.5535 46.9693 85.5961 46.964V47.5C85.5321 47.516 85.4601 47.5267 85.3801 47.532C85.3001 47.5427 85.2361 47.548 85.1881 47.548ZM88.0971 47.5V41.54H88.7371V47.5H88.0971ZM90.0559 47.5V43.212H90.6559V44.044L90.5199 44.012C90.6266 43.7347 90.7999 43.516 91.0399 43.356C91.2853 43.196 91.5679 43.116 91.8879 43.116C92.1919 43.116 92.4639 43.1853 92.7039 43.324C92.9493 43.4627 93.1413 43.6547 93.2799 43.9C93.4239 44.14 93.4959 44.412 93.4959 44.716V47.5H92.8959V44.948C92.8959 44.6867 92.8479 44.4653 92.7519 44.284C92.6613 44.1027 92.5306 43.964 92.3599 43.868C92.1946 43.7667 92.0026 43.716 91.7839 43.716C91.5653 43.716 91.3706 43.7667 91.1999 43.868C91.0293 43.964 90.8959 44.1053 90.7999 44.292C90.7039 44.4733 90.6559 44.692 90.6559 44.948V47.5H90.0559ZM96.6019 47.596C96.1805 47.596 95.8099 47.4973 95.4899 47.3C95.1699 47.1027 94.9192 46.836 94.7379 46.5C94.5565 46.1587 94.4659 45.7747 94.4659 45.348C94.4659 44.9213 94.5565 44.54 94.7379 44.204C94.9192 43.868 95.1699 43.604 95.4899 43.412C95.8099 43.2147 96.1805 43.116 96.6019 43.116C96.8685 43.116 97.1192 43.164 97.3539 43.26C97.5885 43.356 97.7965 43.4867 97.9779 43.652C98.1592 43.812 98.2952 43.9987 98.3859 44.212L97.8419 44.492C97.7352 44.2627 97.5725 44.076 97.3539 43.932C97.1352 43.788 96.8845 43.716 96.6019 43.716C96.3192 43.716 96.0632 43.788 95.8339 43.932C95.6099 44.0707 95.4312 44.2653 95.2979 44.516C95.1699 44.7613 95.1059 45.0413 95.1059 45.356C95.1059 45.6653 95.1699 45.9453 95.2979 46.196C95.4312 46.4413 95.6099 46.636 95.8339 46.78C96.0632 46.924 96.3192 46.996 96.6019 46.996C96.8845 46.996 97.1325 46.924 97.3459 46.78C97.5645 46.636 97.7299 46.444 97.8419 46.204L98.3859 46.5C98.2952 46.708 98.1592 46.8947 97.9779 47.06C97.7965 47.2253 97.5885 47.356 97.3539 47.452C97.1192 47.548 96.8685 47.596 96.6019 47.596ZM99.4388 47.5V43.212H100.039V47.5H99.4388ZM99.4388 42.42V41.54H100.039V42.42H99.4388ZM103.203 47.596C102.803 47.596 102.443 47.5 102.123 47.308C101.803 47.1107 101.55 46.844 101.363 46.508C101.182 46.1667 101.091 45.7827 101.091 45.356C101.091 44.924 101.182 44.54 101.363 44.204C101.55 43.868 101.8 43.604 102.115 43.412C102.435 43.2147 102.798 43.116 103.203 43.116C103.571 43.116 103.899 43.196 104.187 43.356C104.475 43.516 104.702 43.732 104.867 44.004L104.771 44.172V41.444H105.371V47.5H104.771V46.54L104.867 46.628C104.718 46.9373 104.494 47.1773 104.195 47.348C103.902 47.5133 103.571 47.596 103.203 47.596ZM103.235 46.996C103.523 46.996 103.782 46.924 104.011 46.78C104.246 46.636 104.43 46.4413 104.563 46.196C104.702 45.9453 104.771 45.6653 104.771 45.356C104.771 45.0467 104.702 44.7693 104.563 44.524C104.43 44.2733 104.246 44.076 104.011 43.932C103.782 43.788 103.523 43.716 103.235 43.716C102.952 43.716 102.696 43.788 102.467 43.932C102.238 44.076 102.056 44.2707 101.923 44.516C101.795 44.7613 101.731 45.0413 101.731 45.356C101.731 45.6653 101.795 45.9453 101.923 46.196C102.056 46.4413 102.235 46.636 102.459 46.78C102.688 46.924 102.947 46.996 103.235 46.996ZM108.555 47.596C108.155 47.596 107.792 47.5 107.467 47.308C107.147 47.1107 106.893 46.8413 106.707 46.5C106.52 46.1587 106.427 45.772 106.427 45.34C106.427 44.908 106.517 44.5267 106.699 44.196C106.88 43.86 107.125 43.596 107.435 43.404C107.749 43.212 108.101 43.116 108.491 43.116C108.8 43.116 109.075 43.1747 109.315 43.292C109.56 43.404 109.768 43.5587 109.939 43.756C110.109 43.948 110.24 44.1667 110.331 44.412C110.421 44.652 110.467 44.9 110.467 45.156C110.467 45.2093 110.464 45.2707 110.459 45.34C110.453 45.404 110.445 45.4707 110.435 45.54H106.811V44.98H110.091L109.803 45.22C109.851 44.9267 109.816 44.6653 109.699 44.436C109.587 44.2013 109.424 44.0173 109.211 43.884C108.997 43.7453 108.757 43.676 108.491 43.676C108.224 43.676 107.976 43.7453 107.747 43.884C107.523 44.0227 107.347 44.2173 107.219 44.468C107.091 44.7133 107.04 45.0067 107.067 45.348C107.04 45.6893 107.093 45.988 107.227 46.244C107.365 46.4947 107.552 46.6893 107.787 46.828C108.027 46.9667 108.283 47.036 108.555 47.036C108.869 47.036 109.133 46.9613 109.347 46.812C109.56 46.6627 109.733 46.476 109.867 46.252L110.379 46.524C110.293 46.716 110.163 46.8947 109.987 47.06C109.811 47.22 109.6 47.3507 109.355 47.452C109.115 47.548 108.848 47.596 108.555 47.596ZM111.525 47.5V43.212H112.125V44.044L111.989 44.012C112.095 43.7347 112.269 43.516 112.509 43.356C112.754 43.196 113.037 43.116 113.357 43.116C113.661 43.116 113.933 43.1853 114.173 43.324C114.418 43.4627 114.61 43.6547 114.749 43.9C114.893 44.14 114.965 44.412 114.965 44.716V47.5H114.365V44.948C114.365 44.6867 114.317 44.4653 114.221 44.284C114.13 44.1027 113.999 43.964 113.829 43.868C113.663 43.7667 113.471 43.716 113.253 43.716C113.034 43.716 112.839 43.7667 112.669 43.868C112.498 43.964 112.365 44.1053 112.269 44.292C112.173 44.4733 112.125 44.692 112.125 44.948V47.5H111.525ZM117.751 47.548C117.367 47.548 117.071 47.436 116.863 47.212C116.655 46.988 116.551 46.668 116.551 46.252V43.812H115.759V43.212H115.959C116.14 43.212 116.284 43.1533 116.391 43.036C116.497 42.9133 116.551 42.7613 116.551 42.58V42.22H117.151V43.212H118.095V43.812H117.151V46.252C117.151 46.396 117.172 46.524 117.215 46.636C117.257 46.7427 117.329 46.828 117.431 46.892C117.537 46.956 117.679 46.988 117.855 46.988C117.897 46.988 117.948 46.9853 118.007 46.98C118.065 46.9747 118.116 46.9693 118.159 46.964V47.5C118.095 47.516 118.023 47.5267 117.943 47.532C117.863 47.5427 117.799 47.548 117.751 47.548ZM120.7 47.596C120.29 47.596 119.93 47.492 119.62 47.284C119.311 47.076 119.087 46.7933 118.948 46.436L119.452 46.196C119.575 46.4573 119.746 46.6653 119.964 46.82C120.188 46.9747 120.434 47.052 120.7 47.052C120.956 47.052 121.172 46.9907 121.348 46.868C121.524 46.74 121.612 46.5747 121.612 46.372C121.612 46.2227 121.57 46.1053 121.484 46.02C121.399 45.9293 121.3 45.86 121.188 45.812C121.076 45.764 120.978 45.7293 120.892 45.708L120.276 45.532C119.882 45.42 119.596 45.2627 119.42 45.06C119.244 44.8573 119.156 44.6227 119.156 44.356C119.156 44.1053 119.22 43.8867 119.348 43.7C119.476 43.5133 119.65 43.3693 119.868 43.268C120.087 43.1667 120.33 43.116 120.596 43.116C120.959 43.116 121.287 43.212 121.58 43.404C121.879 43.5907 122.09 43.852 122.212 44.188L121.7 44.428C121.594 44.188 121.439 44.0013 121.236 43.868C121.039 43.7293 120.818 43.66 120.572 43.66C120.332 43.66 120.14 43.7213 119.996 43.844C119.852 43.9667 119.78 44.1213 119.78 44.308C119.78 44.452 119.818 44.5667 119.892 44.652C119.967 44.7373 120.052 44.8013 120.148 44.844C120.25 44.8867 120.338 44.9187 120.412 44.94L121.124 45.148C121.471 45.2493 121.74 45.4067 121.932 45.62C122.13 45.8333 122.228 46.084 122.228 46.372C122.228 46.6067 122.162 46.8173 122.028 47.004C121.9 47.1907 121.722 47.3373 121.492 47.444C121.263 47.5453 120.999 47.596 120.7 47.596ZM123.491 47.5V46.62H124.131V47.5H123.491ZM127.019 47.5V41.54H127.659V47.5H127.019ZM128.978 47.5V43.212H129.578V44.044L129.442 44.012C129.548 43.7347 129.722 43.516 129.962 43.356C130.207 43.196 130.49 43.116 130.81 43.116C131.114 43.116 131.386 43.1853 131.626 43.324C131.871 43.4627 132.063 43.6547 132.202 43.9C132.346 44.14 132.418 44.412 132.418 44.716V47.5H131.818V44.948C131.818 44.6867 131.77 44.4653 131.674 44.284C131.583 44.1027 131.452 43.964 131.282 43.868C131.116 43.7667 130.924 43.716 130.706 43.716C130.487 43.716 130.292 43.7667 130.122 43.868C129.951 43.964 129.818 44.1053 129.722 44.292C129.626 44.4733 129.578 44.692 129.578 44.948V47.5H128.978ZM135.052 47.596C134.641 47.596 134.281 47.492 133.972 47.284C133.662 47.076 133.438 46.7933 133.3 46.436L133.804 46.196C133.926 46.4573 134.097 46.6653 134.316 46.82C134.54 46.9747 134.785 47.052 135.052 47.052C135.308 47.052 135.524 46.9907 135.7 46.868C135.876 46.74 135.964 46.5747 135.964 46.372C135.964 46.2227 135.921 46.1053 135.836 46.02C135.75 45.9293 135.652 45.86 135.54 45.812C135.428 45.764 135.329 45.7293 135.244 45.708L134.628 45.532C134.233 45.42 133.948 45.2627 133.772 45.06C133.596 44.8573 133.508 44.6227 133.508 44.356C133.508 44.1053 133.572 43.8867 133.7 43.7C133.828 43.5133 134.001 43.3693 134.22 43.268C134.438 43.1667 134.681 43.116 134.948 43.116C135.31 43.116 135.638 43.212 135.932 43.404C136.23 43.5907 136.441 43.852 136.564 44.188L136.052 44.428C135.945 44.188 135.79 44.0013 135.588 43.868C135.39 43.7293 135.169 43.66 134.924 43.66C134.684 43.66 134.492 43.7213 134.348 43.844C134.204 43.9667 134.132 44.1213 134.132 44.308C134.132 44.452 134.169 44.5667 134.244 44.652C134.318 44.7373 134.404 44.8013 134.5 44.844C134.601 44.8867 134.689 44.9187 134.764 44.94L135.476 45.148C135.822 45.2493 136.092 45.4067 136.284 45.62C136.481 45.8333 136.58 46.084 136.58 46.372C136.58 46.6067 136.513 46.8173 136.38 47.004C136.252 47.1907 136.073 47.3373 135.844 47.444C135.614 47.5453 135.35 47.596 135.052 47.596ZM139.274 47.548C138.89 47.548 138.594 47.436 138.386 47.212C138.178 46.988 138.074 46.668 138.074 46.252V43.812H137.282V43.212H137.482C137.663 43.212 137.807 43.1533 137.914 43.036C138.021 42.9133 138.074 42.7613 138.074 42.58V42.22H138.674V43.212H139.618V43.812H138.674V46.252C138.674 46.396 138.695 46.524 138.738 46.636C138.781 46.7427 138.853 46.828 138.954 46.892C139.061 46.956 139.202 46.988 139.378 46.988C139.421 46.988 139.471 46.9853 139.53 46.98C139.589 46.9747 139.639 46.9693 139.682 46.964V47.5C139.618 47.516 139.546 47.5267 139.466 47.532C139.386 47.5427 139.322 47.548 139.274 47.548ZM141.898 47.596C141.626 47.596 141.383 47.5453 141.17 47.444C140.956 47.3373 140.788 47.1933 140.666 47.012C140.543 46.8307 140.482 46.6227 140.482 46.388C140.482 46.164 140.53 45.9613 140.626 45.78C140.722 45.5933 140.871 45.436 141.074 45.308C141.276 45.18 141.535 45.0893 141.85 45.036L143.53 44.756V45.3L141.994 45.556C141.684 45.6093 141.46 45.708 141.322 45.852C141.188 45.996 141.122 46.1667 141.122 46.364C141.122 46.556 141.196 46.7187 141.346 46.852C141.5 46.9853 141.698 47.052 141.938 47.052C142.231 47.052 142.487 46.9907 142.706 46.868C142.924 46.74 143.095 46.5693 143.218 46.356C143.34 46.1427 143.402 45.9053 143.402 45.644V44.556C143.402 44.3 143.308 44.092 143.122 43.932C142.935 43.772 142.692 43.692 142.394 43.692C142.132 43.692 141.903 43.7587 141.706 43.892C141.508 44.02 141.362 44.188 141.266 44.396L140.722 44.1C140.802 43.9187 140.927 43.7533 141.098 43.604C141.274 43.4547 141.474 43.3373 141.698 43.252C141.922 43.1613 142.154 43.116 142.394 43.116C142.708 43.116 142.986 43.1773 143.226 43.3C143.471 43.4227 143.66 43.5933 143.794 43.812C143.932 44.0253 144.002 44.2733 144.002 44.556V47.5H143.402V46.644L143.49 46.732C143.415 46.892 143.298 47.0387 143.138 47.172C142.983 47.3 142.799 47.404 142.586 47.484C142.378 47.5587 142.148 47.596 141.898 47.596ZM145.236 47.5V43.212H145.836V44.044L145.7 44.012C145.806 43.7347 145.98 43.516 146.22 43.356C146.465 43.196 146.748 43.116 147.068 43.116C147.372 43.116 147.644 43.1853 147.884 43.324C148.129 43.4627 148.321 43.6547 148.46 43.9C148.604 44.14 148.676 44.412 148.676 44.716V47.5H148.076V44.948C148.076 44.6867 148.028 44.4653 147.932 44.284C147.841 44.1027 147.71 43.964 147.54 43.868C147.374 43.7667 147.182 43.716 146.964 43.716C146.745 43.716 146.55 43.7667 146.38 43.868C146.209 43.964 146.076 44.1053 145.98 44.292C145.884 44.4733 145.836 44.692 145.836 44.948V47.5H145.236ZM151.462 47.548C151.078 47.548 150.782 47.436 150.574 47.212C150.366 46.988 150.262 46.668 150.262 46.252V43.812H149.47V43.212H149.67C149.851 43.212 149.995 43.1533 150.102 43.036C150.208 42.9133 150.262 42.7613 150.262 42.58V42.22H150.862V43.212H151.806V43.812H150.862V46.252C150.862 46.396 150.883 46.524 150.926 46.636C150.968 46.7427 151.04 46.828 151.142 46.892C151.248 46.956 151.39 46.988 151.566 46.988C151.608 46.988 151.659 46.9853 151.718 46.98C151.776 46.9747 151.827 46.9693 151.87 46.964V47.5C151.806 47.516 151.734 47.5267 151.654 47.532C151.574 47.5427 151.51 47.548 151.462 47.548ZM152.923 47.5V41.444H153.523V47.5H152.923ZM154.839 49.26C154.754 49.26 154.666 49.252 154.575 49.236C154.49 49.2253 154.405 49.204 154.319 49.172V48.612C154.373 48.6173 154.439 48.6253 154.519 48.636C154.605 48.652 154.69 48.66 154.775 48.66C155.037 48.66 155.237 48.604 155.375 48.492C155.514 48.3853 155.65 48.1773 155.783 47.868L156.055 47.228L156.039 47.756L154.223 43.212H154.871L156.359 46.964H156.191L157.671 43.212H158.335L156.375 48.044C156.29 48.252 156.181 48.4493 156.047 48.636C155.919 48.8227 155.757 48.972 155.559 49.084C155.362 49.2013 155.122 49.26 154.839 49.26ZM158.928 47.5V46.62H159.568V47.5H158.928Z" fill="#E2E0E0"/>
</svg>
